<?xml version="1.0" encoding="utf-8"?>
<svg width="100px" height="100px" viewBox="0 0 200 200" fill="none" class="jss1262 jss1264" xmlns="http://www.w3.org/2000/svg">
  <path fill-rule="evenodd" clip-rule="evenodd" d="M 174.845 0.3 C 174.845 0.3 24.845 0 24.845 0 C 14.845 0 -0.155 15 -0.155 25 L -0.155 100 L -0.155 175 C -0.155 180 3.595 186.25 8.595 191.25 C 13.595 196.25 19.845 200 24.845 200 L 99.845 200 L 174.845 200 C 179.845 200 186.095 196.25 191.095 191.25 C 196.095 186.25 199.845 180 199.845 175 L 199.845 100 L 199.845 25 C 199.845 20 196.095 13.75 191.095 8.788 C 186.095 3.825 179.845 0.15 174.845 0.3 Z" fill="url(#paint0_linear_header_logo)"/>
  <path fill-rule="evenodd" clip-rule="evenodd" d="M 123.165 147.923 C 123.619 148.533 124.008 149.2 124.317 149.91 L 115.551 156.629 L 111.886 154.241 L 111.886 151.369 L 115.551 153.757 L 123.165 147.923 Z M 125.179 154.037 C 125.179 153.427 125.124 152.828 125.024 152.246 L 122.954 153.832 C 122.955 153.901 122.955 153.97 122.955 154.037 C 122.955 158.281 119.636 161.732 115.555 161.732 C 111.475 161.732 108.156 158.281 108.156 154.037 C 108.156 149.796 111.475 146.345 115.555 146.345 C 117.102 146.345 118.539 146.84 119.727 147.687 L 121.6 146.253 C 119.946 144.865 117.844 144.034 115.555 144.034 C 110.24 144.034 105.932 148.513 105.932 154.037 C 105.932 159.563 110.24 164.043 115.555 164.043 C 120.871 164.043 125.179 159.563 125.179 154.037 Z M 135.966 152.986 C 134.622 152.656 133.464 152.373 133.464 151.398 C 133.464 150.094 135.009 149.953 135.673 149.953 C 136.593 149.953 137.117 150.085 137.803 150.408 C 138.135 150.153 139.654 148.989 139.654 148.989 C 138.654 148.327 137.15 147.809 135.689 147.809 C 132.207 147.809 130.965 149.734 130.965 151.536 C 130.965 154.132 133.136 154.673 135.05 155.15 C 136.397 155.484 137.558 155.774 137.558 156.762 C 137.558 157.271 137.266 158.123 135.317 158.123 C 134.021 158.123 132.603 157.65 131.597 156.886 L 130.751 158.899 C 131.776 159.731 133.556 160.265 135.301 160.265 C 138.19 160.265 140.057 158.809 140.057 156.555 C 140.057 153.988 137.883 153.456 135.966 152.986 Z M 148.002 158.055 L 144.886 158.055 L 144.886 154.974 L 148.002 154.974 C 149.425 154.974 150.147 155.486 150.147 156.514 C 150.147 157.547 149.446 158.055 148.002 158.055 Z M 144.886 152.969 L 147.549 152.969 L 144.886 152.969 Z M 144.886 150.025 L 147.549 150.025 C 149.228 150.025 149.579 150.829 149.579 151.497 C 149.579 152.465 148.878 152.969 147.549 152.969 L 144.886 152.969 L 144.886 150.025 Z M 150.642 153.851 L 150.522 153.81 L 150.633 153.748 C 151.585 153.21 152.111 152.278 152.111 151.123 C 152.111 149.18 150.527 148.02 147.873 148.02 L 142.389 148.02 L 142.389 160.061 L 148.197 160.061 C 151.087 160.061 152.678 158.903 152.678 156.801 C 152.678 155.371 151.936 154.297 150.642 153.851 Z M 161.136 150.02 L 163.754 148.015 L 154.997 148.015 L 154.997 160.055 L 163.754 160.055 L 163.754 158.051 L 157.496 158.051 L 157.496 154.969 L 162.833 154.969 L 162.833 152.964 L 157.496 152.964 L 157.496 150.02 L 161.136 150.02 Z M 168.581 150.025 L 170.797 150.025 C 172.398 150.025 173.279 150.846 173.279 152.334 C 173.279 153.825 172.398 154.646 170.797 154.646 L 168.581 154.646 L 168.581 150.025 Z M 175.961 160.059 L 173.416 156.149 C 174.917 155.469 175.783 154.126 175.783 152.329 C 175.783 149.671 173.894 148.02 170.85 148.02 L 166.083 148.02 L 166.083 160.059 L 168.581 160.059 L 168.581 156.649 L 170.85 156.649 C 170.922 156.649 170.991 156.648 171.061 156.647 L 173.282 160.059 L 175.961 160.059 Z" fill="#1D2633"/>
  <path fill-rule="evenodd" clip-rule="evenodd" d="M 158.981 57.379 C 158.244 56.614 157.831 55.576 157.831 54.492 L 157.831 41.225 C 157.831 39.17 156.23 37.504 154.253 37.504 L 142.625 37.504 C 140.648 37.504 139.046 39.17 139.046 41.225 L 139.046 53.313 C 139.046 55.367 140.648 57.034 142.625 57.034 L 155.38 57.034 C 156.422 57.034 157.421 57.465 158.156 58.23 L 158.161 58.234 C 158.896 58.999 159.311 60.037 159.311 61.12 L 159.311 137.581 C 159.311 139.635 160.912 141.302 162.889 141.302 L 174.517 141.302 C 176.494 141.302 178.096 139.635 178.096 137.581 L 178.096 62.296 C 178.096 60.241 176.494 58.575 174.517 58.575 L 161.759 58.575 C 160.717 58.575 159.717 58.146 158.981 57.379 Z" fill="#1D2633"/>
  <path fill-rule="evenodd" clip-rule="evenodd" d="M 68.054 100.38 L 68.068 100.365 C 68.805 99.604 69.8 99.176 70.839 99.176 L 102.399 99.176 C 104.366 99.176 105.961 97.518 105.961 95.473 L 105.961 82.17 C 105.961 81.096 106.374 80.066 107.107 79.309 L 107.119 79.295 C 107.856 78.534 108.851 78.106 109.89 78.106 L 122.665 78.106 C 124.632 78.106 126.227 76.447 126.227 74.401 L 126.227 62.278 C 126.227 60.234 124.632 58.575 122.665 58.575 L 109.889 58.575 C 108.847 58.575 107.849 58.145 107.112 57.379 C 106.375 56.614 105.961 55.576 105.961 54.492 L 105.961 41.208 C 105.961 39.162 104.366 37.504 102.399 37.504 L 51.746 37.504 C 49.746 37.504 48.124 39.189 48.124 41.27 L 48.124 53.268 C 48.124 55.349 49.746 57.034 51.746 57.034 L 103.51 57.034 C 104.552 57.034 105.552 57.465 106.29 58.231 C 107.027 58.998 107.442 60.037 107.442 61.123 L 107.442 75.572 C 107.442 76.651 107.027 77.686 106.292 78.448 L 106.282 78.457 C 105.547 79.218 104.55 79.647 103.512 79.647 L 71.952 79.647 C 69.984 79.647 68.39 81.304 68.39 83.35 L 68.39 96.643 C 68.39 97.72 67.978 98.752 67.246 99.513 L 67.232 99.527 C 66.501 100.288 65.508 100.716 64.472 100.716 L 51.687 100.716 C 49.719 100.716 48.124 102.374 48.124 104.421 L 48.124 116.542 C 48.124 118.588 49.719 120.247 51.687 120.247 L 64.485 120.247 C 65.52 120.247 66.513 120.674 67.246 121.436 C 67.978 122.197 68.39 123.229 68.39 124.305 L 68.39 137.597 C 68.39 139.642 69.984 141.301 71.952 141.302 L 122.604 141.302 C 124.605 141.302 126.227 139.616 126.227 137.535 L 126.227 125.537 C 126.227 123.457 124.605 121.772 122.604 121.772 L 70.838 121.771 C 69.8 121.771 68.804 121.342 68.068 120.582 L 68.054 120.567 C 67.322 119.811 66.91 118.782 66.91 117.709 L 66.91 103.24 C 66.91 102.167 67.322 101.138 68.054 100.38 Z" fill="#1D2633"/>
  <defs>
    <linearGradient id="paint0_linear_header_logo" x1="-164.92" y1="-211.578" x2="231.363" y2="201.695" gradientUnits="userSpaceOnUse" gradientTransform="matrix(1.458967, 0, 0, 1.45196, -143.011788, -78.776283)">
      <stop stop-color="#861BE3"/>
      <stop offset="1" stop-color="#00FFC1"/>
    </linearGradient>
  </defs>
  <path d="M 26.619 37.159 C 26.619 36.257 26.974 35.956 27.961 35.956 L 31.988 35.956 C 32.994 35.956 33.329 36.257 33.329 37.159 L 33.329 40.766 C 33.329 41.667 32.994 41.968 31.988 41.968 L 27.961 41.968 C 26.955 41.968 26.619 41.667 26.619 40.766 L 26.619 37.159 Z M 31.988 63.011 L 27.961 63.011 C 26.955 63.011 26.619 62.71 26.619 61.809 L 26.619 46.177 C 26.619 45.275 26.974 44.974 27.961 44.974 L 31.988 44.974 C 32.994 44.974 33.329 45.275 33.329 46.177 L 33.329 61.809 C 33.329 62.71 32.994 63.011 31.988 63.011 Z M 27.354 75.874 C 27.387 75.872 27.418 75.871 27.453 75.871 L 29.367 75.871 C 29.843 75.871 30.004 76.207 30.004 77.221 L 30.004 81.28 C 30.004 81.319 30.004 81.355 30.004 81.39 L 30.005 81.383 C 30.028 81.919 30.093 82.6 30.596 82.633 C 30.612 82.632 30.627 82.632 30.641 82.632 L 32.556 82.632 C 33.031 82.632 33.193 82.969 33.193 83.985 L 33.193 88.045 C 33.193 88.298 33.182 88.508 33.162 88.683 C 33.187 88.885 33.234 89.077 33.32 89.225 L 33.32 70.458 C 33.32 69.444 33.564 69.104 34.267 69.104 L 37.138 69.104 C 37.855 69.104 38.104 69.444 38.104 70.458 L 38.104 94.807 C 38.104 95.822 37.855 96.159 37.138 96.159 L 34.267 96.159 C 33.56 96.159 33.32 95.822 33.32 94.807 L 33.32 90.274 C 33.221 89.912 32.776 89.449 32.607 89.394 C 32.59 89.394 32.573 89.397 32.556 89.397 L 30.641 89.397 C 30.165 89.397 30.004 89.058 30.004 88.045 L 30.004 83.985 C 30.004 83.815 30.008 83.665 30.019 83.532 C 29.981 83.219 29.64 82.699 29.471 82.626 C 29.438 82.631 29.404 82.632 29.367 82.632 L 27.453 82.632 C 26.974 82.632 26.815 82.295 26.815 81.28 L 26.815 77.221 C 26.815 76.925 26.829 76.686 26.861 76.496 C 26.834 76.275 26.805 76.274 26.687 76.286 L 26.687 94.807 C 26.687 95.822 26.439 96.159 25.722 96.159 L 22.851 96.159 C 22.143 96.159 21.904 95.822 21.904 94.807 L 21.904 70.458 C 21.904 69.444 22.148 69.104 22.851 69.104 L 25.722 69.104 C 26.439 69.104 26.687 69.444 26.687 70.458 L 26.687 75.114 C 26.754 75.515 26.972 75.814 27.354 75.874 Z M 25.953 103.024 C 25.953 102.446 26.257 102.253 27.168 102.253 L 36.885 102.253 C 37.796 102.253 38.099 102.446 38.099 103.024 L 38.099 105.345 C 38.099 105.925 37.796 106.117 36.885 106.117 L 28.013 106.117 L 28.021 106.122 C 27.419 106.133 25.942 106.274 25.961 107.761 L 25.953 107.745 L 25.953 113.111 C 26.056 113.761 26.671 113.861 27.192 113.866 C 27.352 113.852 27.532 113.849 27.735 113.849 L 32.595 113.849 C 33.809 113.849 34.212 114.041 34.212 114.62 L 34.212 116.94 C 34.212 117.519 33.809 117.714 32.595 117.714 L 27.735 117.714 C 26.519 117.714 26.115 117.519 26.115 116.94 L 26.115 114.62 C 26.115 114.577 26.117 114.535 26.122 114.498 C 26.093 114.267 26.089 114.112 25.953 114.098 L 25.953 127.762 C 25.953 128.92 25.751 129.308 25.143 129.308 L 22.713 129.308 C 22.107 129.308 21.904 128.92 21.904 127.762 L 21.904 107.662 C 21.904 106.504 22.119 106.117 22.713 106.117 L 25.062 106.117 L 25.057 106.112 C 25.666 106.098 25.91 105.994 25.96 105.49 C 25.955 105.443 25.953 105.396 25.953 105.345 L 25.953 103.024 Z M 32.683 143.759 C 32.652 142.638 32.44 142.27 31.624 142.199 L 31.648 142.165 C 31.641 142.165 31.634 142.165 31.625 142.165 L 28.524 142.165 L 28.533 142.175 C 27.624 142.194 27.391 142.585 27.319 144.028 L 27.303 144.006 L 27.303 154.338 C 27.303 154.364 27.303 154.387 27.303 154.41 C 27.387 155.256 27.701 155.612 28.38 155.692 C 28.382 155.692 28.383 155.692 28.384 155.692 C 28.395 155.692 31.648 155.692 31.659 155.692 C 32.352 155.6 32.629 155.182 32.705 154.358 C 32.705 154.343 32.705 154.33 32.705 154.318 L 32.705 143.736 L 32.683 143.759 Z M 26.068 142.14 C 26.931 142.101 27.233 141.854 27.306 140.921 C 27.304 140.884 27.303 140.851 27.303 140.812 L 27.303 136.754 C 27.303 135.739 27.591 135.401 28.384 135.401 L 31.625 135.401 C 32.435 135.401 32.705 135.739 32.705 136.754 L 32.705 140.68 L 32.711 140.671 C 32.725 141.659 32.962 142.009 33.777 142.143 C 33.78 142.143 33.782 142.143 33.784 142.143 L 37.026 142.143 C 37.836 142.143 38.104 142.482 38.104 143.496 L 38.104 154.318 C 38.104 155.333 37.836 155.67 37.026 155.67 L 33.784 155.67 C 33.743 155.67 33.705 155.67 33.667 155.668 C 33.014 155.774 32.78 156.238 32.705 157.392 L 32.705 161.104 C 32.705 162.118 32.435 162.456 31.625 162.456 L 28.384 162.456 C 27.573 162.456 27.303 162.118 27.303 161.104 L 27.303 157.045 C 27.303 156.985 27.306 156.928 27.308 156.873 C 27.24 156.116 26.944 155.815 26.209 155.692 L 22.985 155.692 C 22.174 155.692 21.904 155.355 21.904 154.338 L 21.904 143.518 C 21.904 142.502 22.191 142.165 22.985 142.165 L 26.083 142.165 L 26.068 142.14 Z" style="fill: rgb(29, 38, 51);"/>
</svg>